<svg width="66" height="28" viewBox="0 0 66 28" fill="none" xmlns="http://www.w3.org/2000/svg">
<path d="M0.88 27H5.848C10.132 27 12.22 26.46 14.632 24.696C17.8 22.428 19.456 19.08 19.456 14.976C19.456 10.944 17.8 7.524 14.812 5.328C12.472 3.636 10.06 2.988 5.92 2.988H0.88V27ZM4.516 23.58V6.408H6.136C9.052 6.408 10.96 6.912 12.544 8.1C14.596 9.612 15.82 12.168 15.82 15.012C15.82 17.82 14.632 20.304 12.544 21.852C10.852 23.076 9.052 23.58 6.136 23.58H4.516ZM33.5143 11.844V13.608C32.0023 12.024 30.7063 11.448 28.7623 11.448C24.6943 11.448 21.6343 14.832 21.6343 19.404C21.6343 24.048 24.6943 27.468 28.8703 27.468C30.7063 27.468 31.8943 26.928 33.5143 25.416V27H37.0063V11.844H33.5143ZM29.4103 14.58C31.9663 14.58 33.7303 16.596 33.7303 19.476C33.7303 22.356 31.9663 24.336 29.3743 24.336C26.9263 24.336 25.1983 22.284 25.1983 19.404C25.1983 16.632 26.9983 14.58 29.4103 14.58ZM49.1841 14.436C48.1761 12.384 46.8441 11.448 44.8641 11.448C42.1641 11.448 40.1481 13.392 40.1481 16.02C40.1481 17.892 40.8681 18.864 43.1001 19.944C46.3761 21.564 46.5921 21.708 46.5921 22.716C46.5921 23.688 45.8721 24.336 44.7921 24.336C43.7481 24.336 43.1721 23.868 42.3441 22.356L39.3561 23.724C40.4001 26.208 42.2001 27.468 44.7561 27.468C47.7801 27.468 50.1561 25.236 50.1561 22.356C50.1561 20.916 49.5441 19.764 48.3201 18.936C47.6361 18.468 46.9521 18.108 45.4401 17.388C43.8201 16.632 43.4241 16.308 43.4241 15.66C43.4241 15.048 43.9281 14.58 44.5761 14.58C45.2961 14.58 45.8001 15.012 46.3041 15.984L49.1841 14.436ZM52.2216 0.755999V27H55.7136V19.692C55.7136 17.856 55.9296 16.452 56.3256 15.84C56.8296 15.048 57.8376 14.58 59.0256 14.58C60.9336 14.58 61.7616 15.624 61.7616 18.036V27H65.2536V17.712C65.2536 15.624 65.0016 14.508 64.2456 13.5C63.3456 12.204 61.6536 11.448 59.8536 11.448C58.1976 11.448 57.0456 11.916 55.7136 13.104V0.755999H52.2216Z" fill="white"/>
</svg>
